<svg id="Component_39_1" data-name="Component 39 – 1" xmlns="http://www.w3.org/2000/svg" xmlns:xlink="http://www.w3.org/1999/xlink" width="281.107" height="290.007" viewBox="0 0 281.107 290.007">
  <defs>
    <clipPath id="clip-path">
      <rect id="Rectangle_73" data-name="Rectangle 73" width="281.107" height="186.626" fill="none"/>
    </clipPath>
    <clipPath id="clip-path-2">
      <rect id="Rectangle_74" data-name="Rectangle 74" width="281.107" height="290.007" fill="none"/>
    </clipPath>
  </defs>
  <g id="Group_4366" data-name="Group 4366" transform="translate(0 76.578)">
    <g id="Group_4365" data-name="Group 4365" clip-path="url(#clip-path)">
      <path id="Path_287" data-name="Path 287" d="M165.935,221.263a82.7,82.7,0,0,1-46.346,22.445c-15.187,2.1-44.642,6.423-69.549-10.613-51.547-35.26-34.319-118.744,54.975-136.346S246.542,109,252.66,140.525a57.562,57.562,0,0,1,1.032,9.7,49.889,49.889,0,0,1-42.555,50.445c-14.167,2.16-31.711,7.575-45.2,20.6" transform="translate(10.345 -32.356)" fill="#f6e7f3"/>
      <path id="Path_288" data-name="Path 288" d="M36.3,120.669a14.09,14.09,0,0,0,3.194-3.11,44.65,44.65,0,0,1,28.766-16.476c19.906-2.8,28.154-3.119,26.681-12.723S68.891,64.232,44.957,74.454,15.3,102.706,18.07,112.065c2.8,9.459,11.13,13.452,18.225,8.6" transform="translate(8.492 -40.806)" fill="#f6e7f3"/>
      <path id="Path_289" data-name="Path 289" d="M153.9,91.252s-23.7-.859-24.953-18.167,44.67-8.859,46.823,9.977c1.617,14.14-21.87,8.19-21.87,8.19" transform="translate(62.807 -43.804)" fill="#f6e7f3"/>
    </g>
  </g>
  <g id="Group_4368" data-name="Group 4368">
    <g id="Group_4367" data-name="Group 4367" clip-path="url(#clip-path-2)">
      <path id="Path_290" data-name="Path 290" d="M42.52,58.6H20.675a1.352,1.352,0,1,1,0-2.7H42.52a1.352,1.352,0,1,1,0,2.7" transform="translate(9.394 24.816)" fill="#eec42e"/>
      <path id="Path_291" data-name="Path 291" d="M166.03,110.208H147.157a1.352,1.352,0,1,1,0-2.7H166.03a1.352,1.352,0,1,1,0,2.7" transform="translate(71.011 47.731)" fill="#30509a"/>
      <path id="Path_292" data-name="Path 292" d="M127.448,35.556h-2.232a1.038,1.038,0,0,1-1.054-1.022v-2a1.039,1.039,0,0,1,1.054-1.024h2.232A1.039,1.039,0,0,1,128.5,32.53v2a1.038,1.038,0,0,1-1.054,1.022" transform="translate(60.487 13.988)" fill="#30509a"/>
      <path id="Path_293" data-name="Path 293" d="M59.019,131.356H56.785a1.038,1.038,0,0,1-1.053-1.024v-2a1.039,1.039,0,0,1,1.053-1.024h2.234a1.04,1.04,0,0,1,1.054,1.024v2a1.039,1.039,0,0,1-1.054,1.024" transform="translate(27.151 56.521)" fill="#30509a"/>
      <path id="Path_294" data-name="Path 294" d="M176.606,85.619H143.159a5.8,5.8,0,0,1-5.88-5.711V49.716a4.393,4.393,0,0,1,4.459-4.329h34.868a4.4,4.4,0,0,1,4.458,4.329V81.289a4.4,4.4,0,0,1-4.458,4.331" transform="translate(66.877 20.151)" fill="#d84c76"/>
      <path id="Path_295" data-name="Path 295" d="M164.271,69.432H146.246a.874.874,0,0,1-.938-.911,9.955,9.955,0,0,1,19.9,0,.926.926,0,0,1-.938.911M147.186,67.61h16.145a8.167,8.167,0,0,0-16.145,0" transform="translate(70.789 26.133)" fill="#fff"/>
      <path id="Path_296" data-name="Path 296" d="M153.476,60.918a4.377,4.377,0,1,1,4.5-4.374,4.5,4.5,0,0,1-4.5,4.374m0-6.927a2.553,2.553,0,1,0,2.628,2.553,2.648,2.648,0,0,0-2.628-2.553" transform="translate(72.573 23.161)" fill="#fff"/>
      <path id="Path_297" data-name="Path 297" d="M156.31,15.715H117.772a1.356,1.356,0,0,1-1.376-1.336V1.336A1.356,1.356,0,0,1,117.772,0H156.31a1.356,1.356,0,0,1,1.376,1.336V14.379a1.356,1.356,0,0,1-1.376,1.336" transform="translate(56.704)" fill="#30509a"/>
      <line id="Line_10" data-name="Line 10" x2="25.341" transform="translate(181.074 5.977)" fill="none" stroke="#fff" stroke-linecap="round" stroke-linejoin="round" stroke-width="0.585"/>
      <line id="Line_11" data-name="Line 11" x2="11.329" transform="translate(181.074 9.738)" fill="none" stroke="#fff" stroke-linecap="round" stroke-linejoin="round" stroke-width="0.585"/>
      <path id="Path_298" data-name="Path 298" d="M119.944,9.825v5.262l6.817-5.262Z" transform="translate(58.433 4.362)" fill="#30509a"/>
      <path id="Path_299" data-name="Path 299" d="M62.68,127.581H24.018a6.7,6.7,0,0,1-6.8-6.6v-34.9a5.081,5.081,0,0,1,5.155-5H62.68a5.083,5.083,0,0,1,5.156,5v36.5a5.083,5.083,0,0,1-5.156,5.006" transform="translate(8.388 35.995)" fill="#30509a"/>
      <path id="Path_300" data-name="Path 300" d="M28.817,92.227H39.505a3.353,3.353,0,0,1,3.4,3.3v8.492a3.353,3.353,0,0,1-3.4,3.3H28.817a3.353,3.353,0,0,1-3.4-3.3V95.529a3.353,3.353,0,0,1,3.4-3.3m0,1.887a1.436,1.436,0,0,0-1.457,1.415v8.492a1.436,1.436,0,0,0,1.457,1.415H39.505a1.436,1.436,0,0,0,1.457-1.415V95.529a1.436,1.436,0,0,0-1.457-1.415Zm16.716.978,3.239-.882a2.276,2.276,0,0,1,2.8,1.526,2.161,2.161,0,0,1,.085.593v6.892a2.236,2.236,0,0,1-2.268,2.2,2.311,2.311,0,0,1-.613-.082l-3.239-.882a2.211,2.211,0,0,1-1.655-2.118V97.21a2.211,2.211,0,0,1,1.655-2.118m.525,1.817a.315.315,0,0,0-.236.3v5.13a.315.315,0,0,0,.236.3l3.239.882a.357.357,0,0,0,.088.012.319.319,0,0,0,.324-.315V96.329a.276.276,0,0,0-.013-.085.324.324,0,0,0-.4-.218Z" transform="translate(12.382 40.947)" fill="#fff"/>
      <path id="Path_301" data-name="Path 301" d="M103.693,159.885l8.727,16.1,16.9.7-9.313-16.711Z" transform="translate(50.516 70.987)" fill="#edba9d"/>
      <path id="Path_302" data-name="Path 302" d="M113.781,169.912l2.9,6.221-15.3,3.422a8.237,8.237,0,0,0-5.437,7.089l-.168,1.864,46.3-.079-7.672-18.863Z" transform="translate(46.66 75.284)" fill="#000006"/>
      <line id="Line_12" data-name="Line 12" x2="44.204" transform="translate(143.075 259.769)" fill="none" stroke="#fff" stroke-linecap="round" stroke-linejoin="round" stroke-width="0.43"/>
      <line id="Line_13" data-name="Line 13" x2="2.662" y2="2.661" transform="translate(154.832 253.291)" fill="none" stroke="#fff" stroke-linecap="round" stroke-linejoin="round" stroke-width="1.083"/>
      <line id="Line_14" data-name="Line 14" x2="2.662" y2="2.661" transform="translate(159.704 252.234)" fill="none" stroke="#fff" stroke-linecap="round" stroke-linejoin="round" stroke-width="1.083"/>
      <path id="Path_303" data-name="Path 303" d="M87.9,73.526,75.707,126.218c-.99,4.917-.211,8.569,2.207,13l40.7,68.254,26.878-.982s-41.8-80.182-42.82-80.865,2.118-52.1,2.118-52.1Z" transform="translate(36.678 32.644)" fill="#30509a"/>
      <path id="Path_304" data-name="Path 304" d="M78.764,159.853,73.643,176.06l16.261-.039,5.177-16.074Z" transform="translate(35.876 70.972)" fill="#edba9d"/>
      <path id="Path_305" data-name="Path 305" d="M80.463,169.565l-3.074,6.472-15.3,3.424a8.237,8.237,0,0,0-5.439,7.089l-.168,1.863,41.8-.078,2.092-17.995Z" transform="translate(27.516 75.284)" fill="#000006"/>
      <line id="Line_15" data-name="Line 15" x2="40.427" transform="translate(84.636 259.674)" fill="none" stroke="#fff" stroke-linecap="round" stroke-linejoin="round" stroke-width="0.43"/>
      <line id="Line_16" data-name="Line 16" x2="2.664" y2="2.661" transform="translate(96.391 253.196)" fill="none" stroke="#fff" stroke-linecap="round" stroke-linejoin="round" stroke-width="1.083"/>
      <line id="Line_17" data-name="Line 17" x2="2.662" y2="2.661" transform="translate(101.263 252.14)" fill="none" stroke="#fff" stroke-linecap="round" stroke-linejoin="round" stroke-width="1.083"/>
      <path id="Path_306" data-name="Path 306" d="M72.269,206.216,102.512,73.527h21.736s11.735,1.944.55,44-26.287,89.939-26.287,89.939Z" transform="translate(35.207 32.645)" fill="#30509a"/>
      <path id="Path_307" data-name="Path 307" d="M81.078,140.611l9.479-40.329-4.34-8.436" transform="translate(39.498 40.778)" fill="none" stroke="#1e0b07" stroke-linecap="round" stroke-linejoin="round" stroke-width="0.378"/>
      <line id="Line_18" data-name="Line 18" x1="10.474" y2="35.519" transform="translate(141.061 180.73)" fill="none" stroke="#1e0b07" stroke-linecap="round" stroke-linejoin="round" stroke-width="0.378"/>
      <path id="Path_308" data-name="Path 308" d="M113.517,56.02,81.052,78.1l-.5.341a8.22,8.22,0,0,1-11.233-1.922l-.1-.137-18.4-26.694a6.865,6.865,0,0,1,1.978-9.7,7.369,7.369,0,0,1,9.692,1.523L82.779,66.886,70.95,65.168l30.649-24.4A10.071,10.071,0,0,1,115.486,42.1a9.392,9.392,0,0,1-1.374,13.483c-.189.15-.4.3-.595.439" transform="translate(24.166 17.135)" fill="#e9b1a0"/>
      <path id="Path_309" data-name="Path 309" d="M63.473,35.766l-15.92-.077s-4.74,9.25,6.918,16.164c.666.4,4.409.045,5.134-.284l6.767-4.823a2.716,2.716,0,0,0,.876-3.44Z" transform="translate(22.702 15.845)" fill="#e9b1a0"/>
      <path id="Path_310" data-name="Path 310" d="M60.77,40.186l-3.16-8.1A2.23,2.23,0,0,0,54.785,30.8h0a2.166,2.166,0,0,0-1.176,2.735l2.568,8.629Z" transform="translate(26.057 13.61)" fill="#e9b1a0"/>
      <path id="Path_311" data-name="Path 311" d="M55.771,42.42l-4.4-7.763a2,2,0,1,0-3.565,1.789l3.914,8.338Z" transform="translate(23.178 14.839)" fill="#e9b1a0"/>
      <path id="Path_312" data-name="Path 312" d="M58.211,39.932l-4.157-7.34a2.187,2.187,0,0,0-2.936-.936,2.213,2.213,0,0,0-.846,2.881l3.633,7.94Z" transform="translate(24.383 13.943)" fill="#e9b1a0"/>
      <path id="Path_313" data-name="Path 313" d="M54.714,23.492l-2.378-.526L47.788,37.834l4.377,14.808,2.549.52.394-16.9Z" transform="translate(23.281 10.197)" fill="#000006"/>
      <path id="Path_314" data-name="Path 314" d="M64.188,48.1l-8.759,4.289a1.634,1.634,0,0,1-2.42-.721L43.638,29.315a1.279,1.279,0,0,1,.486-1.542l9.217-4.6a1.358,1.358,0,0,1,2.012.6l9.42,22.468a1.542,1.542,0,0,1-.586,1.854" transform="translate(21.214 10.187)" fill="#000006"/>
      <path id="Path_315" data-name="Path 315" d="M65.748,48.451,56.99,52.74a1.634,1.634,0,0,1-2.42-.721L45.2,29.668a1.279,1.279,0,0,1,.486-1.542l9.217-4.6a1.358,1.358,0,0,1,2.012.6L66.335,46.6a1.54,1.54,0,0,1-.587,1.854" transform="translate(21.974 10.344)" fill="#f6e7f3"/>
      <path id="Path_316" data-name="Path 316" d="M59.129,49.112a6.068,6.068,0,0,0,4.128-4.778,17.619,17.619,0,0,0-.442-7.863c-.315-1.509-.952-2.378-2.164-2.556a2.293,2.293,0,0,0-2.568,1.845l.449,3.2s-2.54,3.164-1.178,9.464Z" transform="translate(27.745 15.048)" fill="#e9b1a0"/>
      <path id="Path_317" data-name="Path 317" d="M75.9,47.678,91.19,35.459c5.928-3.6,13.161-1.609,17.275,3.884a12.7,12.7,0,0,1-3.724,18.568L91.886,67.384Z" transform="translate(36.977 14.936)" fill="#eec42e"/>
      <path id="Path_318" data-name="Path 318" d="M106.17,33s10.843-.344,17.666,4.294L125.469,73l2.818,35.85-48.4-4.332,2.1-55.049c-.412-4.9,2.811-10.989,7.907-13.748l4.149-2.157Z" transform="translate(38.918 14.648)" fill="#eec42e"/>
      <path id="Path_319" data-name="Path 319" d="M81.783,42.178s-1.141,6.917-.66,11.211" transform="translate(39.463 18.726)" fill="none" stroke="#1e0b07" stroke-linecap="round" stroke-linejoin="round" stroke-width="0.378"/>
      <path id="Path_320" data-name="Path 320" d="M88.765,34.583l4.054,8.885,12.626-9.822s-2.879-3.23-10.031-1.727-6.649,2.664-6.649,2.664" transform="translate(43.239 13.994)" fill="#edba9d"/>
      <path id="Path_321" data-name="Path 321" d="M119.017,44.649,126.8,60.53l3.895,7.939,1.945,3.971.995,2.027a27.258,27.258,0,0,1,1.237,2.91,26.665,26.665,0,0,1,1.395,12.255l-1.124,8.729L132.9,115.816a7.161,7.161,0,0,1-8.038,6.071,7.082,7.082,0,0,1-6.3-7.249l.809-17.575.4-8.787a10.975,10.975,0,0,0-1-5.015,10.213,10.213,0,0,0-.59-1.109l-1.087-1.873L114.87,76.45l-4.451-7.657-8.9-15.318a9.435,9.435,0,0,1,3.745-13.051A10.025,10.025,0,0,1,118.7,44.058c.107.188.222.4.315.591" transform="translate(48.834 17.398)" fill="#e9b1a0"/>
      <path id="Path_322" data-name="Path 322" d="M121.195,89.613c-2.253-1.05-6.239.868-6.914,1.624a58.223,58.223,0,0,0-5.217,6.933,2.577,2.577,0,0,0,.045,3.37,2.415,2.415,0,0,0,3.477-.079l2.082-2.089s3.758,1.084,6.6-6.28Z" transform="translate(52.838 39.651)" fill="#e9b1a0"/>
      <path id="Path_323" data-name="Path 323" d="M110.511,101.2l14,4.478s4.256-2.836,3.229-12.242c-.085-.767-2.244-1.141-3.017-1.385l-10.748-1.739Z" transform="translate(53.837 40.099)" fill="#e9b1a0"/>
      <path id="Path_324" data-name="Path 324" d="M112.423,96.426l-3.455,8.166a2.168,2.168,0,0,0,1.179,2.871,2.322,2.322,0,0,0,2.838-1.242l4.273-8.159Z" transform="translate(53.005 42.812)" fill="#e9b1a0"/>
      <path id="Path_325" data-name="Path 325" d="M117.63,98.327l-2.29,8.753a2.07,2.07,0,0,0,1.364,2.66,2.288,2.288,0,0,0,2.573-1.583l3.064-8.852Z" transform="translate(56.146 43.656)" fill="#e9b1a0"/>
      <path id="Path_326" data-name="Path 326" d="M119.133,98.73l-.509,7.431c-.028,1.134.668,2.019,1.567,1.994a2.021,2.021,0,0,0,1.716-1.967l1.1-7.7Z" transform="translate(57.789 43.729)" fill="#e9b1a0"/>
      <path id="Path_327" data-name="Path 327" d="M114.13,98.365l-2.168,8.273a2.126,2.126,0,0,0,1.515,2.68,2.365,2.365,0,0,0,2.695-1.571l2.988-8.366Z" transform="translate(54.505 43.673)" fill="#e9b1a0"/>
      <path id="Path_328" data-name="Path 328" d="M105.841,67.429l-8.963-14.9a12.766,12.766,0,0,1,6.416-16.495,13.466,13.466,0,0,1,18.219,6.7l9.244,13.029Z" transform="translate(46.708 15.401)" fill="#eec42e"/>
      <path id="Path_329" data-name="Path 329" d="M108.483,60.37l-2.568,1.33L97.853,46.8" transform="translate(47.67 20.777)" fill="none" stroke="#1e0b07" stroke-linecap="round" stroke-linejoin="round" stroke-width="0.378"/>
      <path id="Path_330" data-name="Path 330" d="M79.286,18.678a15.8,15.8,0,0,0,31.583.168c.049-8.469-6.756-13.065-15.477-13.11S79.334,10.21,79.286,18.678" transform="translate(38.625 2.546)" fill="#dc9a7a"/>
      <path id="Path_331" data-name="Path 331" d="M85.878,29.878l6.088,14.011,14.881-4.852L95.277,19.89Z" transform="translate(41.837 8.831)" fill="#edba9d"/>
      <path id="Path_332" data-name="Path 332" d="M88.188,6.948S78.6,9.085,78.025,16.9,77.1,36.369,83.96,38.067a16.249,16.249,0,0,0,10.482-1.017L99.955,27Z" transform="translate(37.874 3.085)" fill="#edba9d"/>
      <path id="Path_333" data-name="Path 333" d="M80.474,17.926l-3.835,5.943a.764.764,0,0,0,.686,1.168l3.975-.094Z" transform="translate(37.277 7.959)" fill="#edba9d"/>
      <path id="Path_334" data-name="Path 334" d="M86.606,29.755s3.649-1.835,4.988-3.815l-2.522,9.3Z" transform="translate(42.191 11.517)" fill="#e69475"/>
      <path id="Path_335" data-name="Path 335" d="M97.146,29.64s-.775-2.218,3.548-6.163l.518-6.255-8.524,5.22a7.147,7.147,0,0,0,4.459,7.2" transform="translate(45.142 7.646)" fill="#dc9a7a"/>
      <path id="Path_336" data-name="Path 336" d="M83.746,7.443s0,6.114,9.243,8.159l-.532-7.321L86.048,6.515Z" transform="translate(40.798 2.893)" fill="#dc9a7a"/>
      <path id="Path_337" data-name="Path 337" d="M88.417,13.091c-2.707.056-7.452,1.347-10.788-1.461C74.5,9,74.213.711,87.295,2.641s24.186,2.3,24.98,14.81c0,0-7.538-4.694-23.857-4.359" transform="translate(36.946 1.044)" fill="#631818"/>
      <path id="Path_338" data-name="Path 338" d="M95.524,15.791s-2.1,10.9-9.012,11.491c0,0-2.25-3.094-8.447-1.333,0,0-.134,11.208,10.009,10.234S99.083,21.71,99.083,21.71Z" transform="translate(38.03 7.011)" fill="#631818"/>
      <path id="Path_339" data-name="Path 339" d="M98.072,19.6a3.947,3.947,0,0,1-4.334,3.474,3.891,3.891,0,0,1-3.58-4.208,3.944,3.944,0,0,1,4.334-3.474,3.892,3.892,0,0,1,3.58,4.208" transform="translate(43.913 6.826)" fill="#edba9d"/>
      <path id="Path_340" data-name="Path 340" d="M91.6,19.065a3.57,3.57,0,0,1,3.458-1.733" transform="translate(44.624 7.693)" fill="none" stroke="#e69475" stroke-linecap="round" stroke-linejoin="round" stroke-width="0.243"/>
      <path id="Path_341" data-name="Path 341" d="M81.231,18.57a1,1,0,0,1-.921,1.083,1.013,1.013,0,0,1-1.115-.892,1,1,0,0,1,.921-1.084,1.015,1.015,0,0,1,1.115.894" transform="translate(38.579 7.846)" fill="#221914"/>
      <path id="Path_342" data-name="Path 342" d="M79.1,24.447a3.022,3.022,0,0,0,2.182-.94" transform="translate(38.534 10.437)" fill="none" stroke="#fff" stroke-linecap="round" stroke-linejoin="round" stroke-width="0.277"/>
      <path id="Path_343" data-name="Path 343" d="M83.842,15.363a10.691,10.691,0,0,0-5.044-.946l-.341,1.1a13.969,13.969,0,0,1,4.986.884Z" transform="translate(38.221 6.4)" fill="#1e0b07"/>
      <line id="Line_19" data-name="Line 19" x2="239.502" transform="translate(21.145 263.352)" fill="none" stroke="#141314" stroke-linecap="round" stroke-linejoin="round" stroke-width="0.487"/>
    </g>
  </g>
</svg>
