<svg id="Component_37_1" data-name="Component 37 – 1" xmlns="http://www.w3.org/2000/svg" xmlns:xlink="http://www.w3.org/1999/xlink" width="272.192" height="233.472" viewBox="0 0 272.192 233.472">
  <defs>
    <clipPath id="clip-path">
      <rect id="Rectangle_65" data-name="Rectangle 65" width="272.192" height="187.565" fill="none"/>
    </clipPath>
    <clipPath id="clip-path-2">
      <rect id="Rectangle_67" data-name="Rectangle 67" width="272.192" height="233.472" fill="none"/>
    </clipPath>
  </defs>
  <g id="Group_4350" data-name="Group 4350" transform="translate(0 31.792)">
    <g id="Group_4349" data-name="Group 4349" clip-path="url(#clip-path)">
      <path id="Path_202" data-name="Path 202" d="M108.282,191.861a83.072,83.072,0,0,0,49.288,16.42c15.375.065,45.235.458,67.435-20.123,45.946-42.592,16.554-124.625-74.628-130.346S11.77,89.309,10.346,121.995a59.707,59.707,0,0,0,.4,9.937A51.254,51.254,0,0,0,60.4,177.155c14.373.269,32.577,3.371,47.88,14.705" transform="translate(4.528 -6.613)" fill="#f6e7f3"/>
      <path id="Path_203" data-name="Path 203" d="M177.94,80.6a14.012,14.012,0,0,1-3.095-3.174,42.994,42.994,0,0,0-27.854-16.813c-19.274-2.858-27.259-3.182-25.835-12.982s25.22-24.621,48.4-14.19,28.714,28.829,26.034,38.379c-2.709,9.652-10.777,13.728-17.646,8.78" transform="translate(53.238 -18.646)" fill="#f6e7f3"/>
      <path id="Path_204" data-name="Path 204" d="M68.829,50.151S87,49.457,87.958,35.473s-34.245-7.157-35.895,8.061c-1.238,11.424,16.766,6.617,16.766,6.617" transform="translate(22.881 -19.532)" fill="#f6e7f3"/>
    </g>
  </g>
  <g id="Group_4352" data-name="Group 4352">
    <g id="Group_4351" data-name="Group 4351" clip-path="url(#clip-path-2)">
      <path id="Path_205" data-name="Path 205" d="M55.407,29.242H25.614a1.348,1.348,0,1,1,0-2.7H55.407a1.348,1.348,0,1,1,0,2.7" transform="translate(10.677 11.68)" fill="#eec42e"/>
      <path id="Path_206" data-name="Path 206" d="M177.368,87.965H156.216a1.348,1.348,0,1,1,0-2.7h21.152a1.348,1.348,0,1,1,0,2.7" transform="translate(68.142 37.519)" fill="#eec42e"/>
      <path id="Path_207" data-name="Path 207" d="M127.86,74.741H125.7a1.02,1.02,0,0,1-1.021-1.021v-2A1.02,1.02,0,0,1,125.7,70.7h2.161a1.019,1.019,0,0,1,1.02,1.021v2a1.019,1.019,0,0,1-1.02,1.021" transform="translate(54.859 31.109)" fill="#30509a"/>
      <path id="Path_208" data-name="Path 208" d="M29.872,124.358H27.711a1.02,1.02,0,0,1-1.021-1.021v-2a1.022,1.022,0,0,1,1.021-1.022h2.161a1.023,1.023,0,0,1,1.021,1.022v2a1.021,1.021,0,0,1-1.021,1.021" transform="translate(11.744 52.94)" fill="#30509a"/>
      <path id="Path_209" data-name="Path 209" d="M165.676,52.125H127.068a6.789,6.789,0,0,1-6.788-6.79V9.442a5.146,5.146,0,0,1,5.147-5.147h40.249a5.148,5.148,0,0,1,5.148,5.147V46.977a5.148,5.148,0,0,1-5.148,5.148" transform="translate(52.924 1.89)" fill="#d84c76"/>
      <path id="Path_210" data-name="Path 210" d="M141.333,11.217a11.187,11.187,0,0,0-6.1,20.526l-1.751,2.917a2.594,2.594,0,0,0,2.236,3.924h11.221a2.594,2.594,0,0,0,2.236-3.924l-1.751-2.917a11.187,11.187,0,0,0-6.1-20.526m5.61,24.772H135.723l1.849-3.08a11.157,11.157,0,0,0,7.554,0Zm-5.61-5.026a8.593,8.593,0,1,1,8.592-8.592,8.592,8.592,0,0,1-8.592,8.592" transform="translate(57.292 4.936)" fill="#fff"/>
      <path id="Path_211" data-name="Path 211" d="M139.925,14.46a6.517,6.517,0,1,0,6.517,6.516v-.032a6.516,6.516,0,0,0-6.517-6.484m0,10.44a3.94,3.94,0,1,0,0-.032Z" transform="translate(58.7 6.362)" fill="#fff"/>
      <path id="Path_212" data-name="Path 212" d="M44.565,89.649H16.371a4.959,4.959,0,0,1-4.958-4.958V58.478a3.758,3.758,0,0,1,3.758-3.758H44.565a3.759,3.759,0,0,1,3.758,3.758V85.89a3.759,3.759,0,0,1-3.758,3.758" transform="translate(5.022 24.077)" fill="#30509a"/>
      <path id="Path_213" data-name="Path 213" d="M35.347,72.752l-2.192-2.19a1.917,1.917,0,0,0-1.408-.665,2.029,2.029,0,0,0-1.408.626l-1.251,1.251-.235-.117a3.8,3.8,0,0,1-.392-.2,13.479,13.479,0,0,1-3.247-2.974,7.126,7.126,0,0,1-1.017-1.6c.312-.274.586-.588.86-.86l.353-.353a1.907,1.907,0,0,0,0-2.894l-1.1-1.1a3.554,3.554,0,0,1-.351-.392l-.743-.743a2.029,2.029,0,0,0-1.408-.626,1.934,1.934,0,0,0-1.408.626l-1.371,1.369a3.143,3.143,0,0,0-.9,1.917,7.094,7.094,0,0,0,.508,2.974,16,16,0,0,0,3.051,5.125,19.024,19.024,0,0,0,6.26,4.89,10.4,10.4,0,0,0,3.521,1.056h.274a3.1,3.1,0,0,0,2.347-1.017l.039-.039a6.012,6.012,0,0,1,.7-.7c.157-.157.353-.353.51-.508a1.965,1.965,0,0,0,0-2.857m-.9,2.035c-.157.157-.314.312-.469.469-.275.235-.508.508-.783.783a1.86,1.86,0,0,1-1.408.586h-.194a8.268,8.268,0,0,1-3.053-.939,17.814,17.814,0,0,1-5.829-4.578,16.981,16.981,0,0,1-2.856-4.733,4.846,4.846,0,0,1-.469-2.425,1.652,1.652,0,0,1,.547-1.135l1.331-1.331a.827.827,0,0,1,.549-.274.745.745,0,0,1,.547.274l.7.7a3.58,3.58,0,0,0,.392.39l1.094,1.1a.918.918,0,0,1,.274.549.817.817,0,0,1-.274.547l-.351.353-.978.978-.04.039a.859.859,0,0,0-.235.978v.039a9.041,9.041,0,0,0,1.292,2.112,14.485,14.485,0,0,0,3.56,3.247,3.133,3.133,0,0,0,.508.274,3.959,3.959,0,0,1,.392.2l.039.039a.9.9,0,0,0,1.1-.194L31.2,71.462a.645.645,0,0,1,1.057,0l2.19,2.19a.742.742,0,0,1,0,1.135" transform="translate(7.973 26.365)" fill="#fff"/>
      <path id="Path_214" data-name="Path 214" d="M101.014,149.559H58.781a16.2,16.2,0,0,1-16.2-16.2v-54.6a16.2,16.2,0,0,1,16.2-16.2h42.232a16.2,16.2,0,0,1,16.2,16.2v54.6a16.2,16.2,0,0,1-16.2,16.2" transform="translate(18.735 27.526)" fill="#000006"/>
      <path id="Path_215" data-name="Path 215" d="M56.462,142.788h48.049a6.709,6.709,0,1,1,0,13.418H56.462a6.709,6.709,0,1,1,0-13.418" transform="translate(21.891 62.827)" fill="#000006"/>
      <path id="Path_216" data-name="Path 216" d="M79.636,24.607l-4.844,3.038A10.161,10.161,0,0,1,60.784,24.44L57.012,18.6A10.161,10.161,0,0,1,60.218,4.594l4.844-3.038A10.161,10.161,0,0,1,79.07,4.761L82.843,10.6a10.162,10.162,0,0,1-3.207,14.008" transform="translate(24.401 0)" fill="#1e0b07"/>
      <rect id="Rectangle_66" data-name="Rectangle 66" width="10.514" height="4.427" transform="translate(97.122 28.591) rotate(-32.108)" fill="#d84c76"/>
      <path id="Path_217" data-name="Path 217" d="M111.623,40.641A23.6,23.6,0,1,1,88.029,17.123a23.556,23.556,0,0,1,23.594,23.518" transform="translate(28.351 7.534)" fill="#1e0b07"/>
      <path id="Path_218" data-name="Path 218" d="M92.7,41.813a5.64,5.64,0,1,0,3.57-7.132,5.638,5.638,0,0,0-3.57,7.132" transform="translate(40.663 15.132)" fill="#e69475"/>
      <path id="Path_219" data-name="Path 219" d="M78.2,20.2s7.6-4.764,21.292,2.521c12.489,6.65,2.546,15.935,2.546,15.935Z" transform="translate(34.407 8.213)" fill="#1e0b07"/>
      <path id="Path_220" data-name="Path 220" d="M64.639,41.893C65.393,53.864,76.344,63.339,88.908,63S111.4,52.663,111.071,40.672,100.3,19.236,87.736,19.576s-24.183,5.089-23.1,22.317" transform="translate(28.41 8.609)" fill="#1e0b07"/>
      <path id="Path_221" data-name="Path 221" d="M93.717,53.594l.137,26.119-20.3-.547,4.183-38.522Z" transform="translate(32.365 17.883)" fill="#edba9d"/>
      <path id="Path_222" data-name="Path 222" d="M91.077,61.421,79.666,49.734l11.375,1.092Z" transform="translate(35.053 21.883)" fill="#e69475"/>
      <path id="Path_223" data-name="Path 223" d="M103.674,26.727c1.518,1.215,1.882,3.218,2.943,4.84,1.716,2.622,3.758,15.466,1.925,21.5-2.382,7.844-8.546,13.527-18.8,11.863,0,0-12.259-.9-15.192-16.321-4.673-24.564,16.118-32.282,29.124-21.879" transform="translate(32.507 9.776)" fill="#edba9d"/>
      <path id="Path_224" data-name="Path 224" d="M93.7,38.084l1.162,3.823a.615.615,0,0,1-.42.737L93,42.954" transform="translate(40.919 16.757)" fill="none" stroke="#1e0b07" stroke-linecap="round" stroke-linejoin="round" stroke-width="0.378"/>
      <path id="Path_225" data-name="Path 225" d="M86.905,37.461a1.344,1.344,0,1,0,1.189-1.482,1.346,1.346,0,0,0-1.189,1.482" transform="translate(38.235 15.827)" fill="#1e0b07"/>
      <path id="Path_226" data-name="Path 226" d="M95.008,36.98A1.344,1.344,0,1,0,96.2,35.5a1.346,1.346,0,0,0-1.189,1.483" transform="translate(41.8 15.615)" fill="#1e0b07"/>
      <path id="Path_227" data-name="Path 227" d="M89.5,42.582a4.925,4.925,0,0,0,5.037,1.283" transform="translate(39.38 18.736)" fill="none" stroke="#1e0b07" stroke-linecap="round" stroke-linejoin="round" stroke-width="0.378"/>
      <path id="Path_228" data-name="Path 228" d="M82.986,33.622A20.348,20.348,0,0,1,90.946,32l.363,1.31a29.439,29.439,0,0,0-7.8,1.719Z" transform="translate(36.514 14.081)" fill="#1e0b07"/>
      <path id="Path_229" data-name="Path 229" d="M98.934,32.786a9.349,9.349,0,0,0-5.219-1.077l-.073,1.325a13.143,13.143,0,0,1,5.129,1.189Z" transform="translate(41.203 13.927)" fill="#1e0b07"/>
      <path id="Path_230" data-name="Path 230" d="M68.555,43.059a5.64,5.64,0,1,0,3.57-7.131,5.641,5.641,0,0,0-3.57,7.131" transform="translate(30.037 15.681)" fill="#edba9d"/>
      <path id="Path_231" data-name="Path 231" d="M70.7,38.9a6.372,6.372,0,0,1,4.213,2.18" transform="translate(31.108 17.118)" fill="none" stroke="#e69475" stroke-linecap="round" stroke-linejoin="round" stroke-width="0.378"/>
      <path id="Path_232" data-name="Path 232" d="M73.626,36.365h36.652S108.087,18.635,87.1,17.271L73.99,27.014Z" transform="translate(32.396 7.599)" fill="#1e0b07"/>
      <path id="Path_233" data-name="Path 233" d="M80.39,27.68,78.027,44.36,71.06,37.344l1.616-9.664Z" transform="translate(31.267 12.179)" fill="#1e0b07"/>
      <path id="Path_234" data-name="Path 234" d="M62.356,123.613S47.79,164.155,107.178,164.9h61.151V153.1a21.322,21.322,0,0,0-16.407-20.749l-36.894-8.738Z" transform="translate(26.743 54.39)" fill="#30509a"/>
      <path id="Path_235" data-name="Path 235" d="M93,130.748l21.2,5.672A20.459,20.459,0,0,1,128.111,155.8v5.7" transform="translate(40.919 57.529)" fill="none" stroke="#1e0b07" stroke-linecap="round" stroke-linejoin="round" stroke-width="0.378"/>
      <path id="Path_236" data-name="Path 236" d="M93,92.591l14.345,45.979a11.192,11.192,0,0,0,21.2-7.1L115.265,84.312Z" transform="translate(40.919 37.097)" fill="#edba9d"/>
      <path id="Path_237" data-name="Path 237" d="M85.194,62.663s29.932-6.748,38.288,34.141a87.269,87.269,0,0,1-29.372,9.228Z" transform="translate(37.486 27.389)" fill="#d84c76"/>
      <path id="Path_238" data-name="Path 238" d="M87.237,61.11S62.554,68.451,59.386,75.866c-5.658,13.239,4.346,75.247,4.346,75.247H116.4l5.247-38.657s4.532-17.489.909-33.906a20.211,20.211,0,0,0-17.744-15.661Z" transform="translate(25.367 26.889)" fill="#d84c76"/>
      <path id="Path_239" data-name="Path 239" d="M70.01,65.314s2.984-1.885,11.789-4.2l17.339,1.754s9.3,12.685-8.784,12.921S70.01,65.314,70.01,65.314" transform="translate(30.805 26.889)" fill="#edba9d"/>
      <path id="Path_240" data-name="Path 240" d="M103.285,95.169a72.992,72.992,0,0,0,.252-17.284" transform="translate(45.446 34.27)" fill="none" stroke="#1e0b07" stroke-linecap="round" stroke-linejoin="round" stroke-width="0.378"/>
      <path id="Path_241" data-name="Path 241" d="M81.775,86.49l17.7,44.791a11.192,11.192,0,0,1-20.959,7.785L59.245,94.027Z" transform="translate(26.068 38.056)" fill="#edba9d"/>
      <path id="Path_242" data-name="Path 242" d="M72.575,65.571S46.145,71.013,57.448,110.4c0,0,17.182-.462,32.253-7.171Z" transform="translate(24.04 28.851)" fill="#d84c76"/>
      <line id="Line_6" data-name="Line 6" x1="4.851" y1="14.37" transform="translate(106.386 118.764)" fill="none" stroke="#1e0b07" stroke-linecap="round" stroke-linejoin="round" stroke-width="0.378"/>
      <path id="Path_243" data-name="Path 243" d="M125.984,108.207l-44.3,7.589a10.3,10.3,0,1,0,4.772,19.918l41.155-14.878Z" transform="translate(32.002 47.611)" fill="#edba9d"/>
      <path id="Path_244" data-name="Path 244" d="M109.712,108.617s15.823-4.732,20.936,3.576c3.624,5.891,2.832,12.321,2.065,15.564a2.745,2.745,0,0,1-5.4-.92l.461-4.173s-15.932,8.434-16.435-1.417Z" transform="translate(48.274 47.201)" fill="#edba9d"/>
      <path id="Path_245" data-name="Path 245" d="M85.491,131.631l33.931-.23-.029-4.9-29.876.207a2.526,2.526,0,0,0-2.239,1.385Z" transform="translate(37.616 55.662)" fill="#000006"/>
      <path id="Path_246" data-name="Path 246" d="M187.076,101.135,166.062,138.8a9.143,9.143,0,0,1-7.988,4.692H102.856l21.362-41.95a3.727,3.727,0,0,1,3.3-2.036l58.309-.363a1.382,1.382,0,0,1,1.248,1.993" transform="translate(45.257 43.623)" fill="#262626"/>
      <path id="Path_247" data-name="Path 247" d="M130.413,114.794a4.977,4.977,0,1,0,7.02-2.32,5.244,5.244,0,0,0-7.02,2.32" transform="translate(57.036 49.228)" fill="#fff"/>
      <line id="Line_7" data-name="Line 7" x1="219.973" transform="translate(26.343 219.358)" fill="none" stroke="#141314" stroke-linecap="round" stroke-linejoin="round" stroke-width="0.487"/>
    </g>
  </g>
</svg>
