<svg id="Component_36_1" data-name="Component 36 – 1" xmlns="http://www.w3.org/2000/svg" xmlns:xlink="http://www.w3.org/1999/xlink" width="20.881" height="17.749" viewBox="0 0 20.881 17.749">
  <defs>
    <clipPath id="clip-path">
      <rect id="Rectangle_75" data-name="Rectangle 75" width="20.881" height="17.749" fill="none"/>
    </clipPath>
  </defs>
  <g id="Group_4369" data-name="Group 4369" clip-path="url(#clip-path)">
    <path id="Path_344" data-name="Path 344" d="M107.62,81.92a5.22,5.22,0,1,0,5.22,5.22,5.22,5.22,0,0,0-5.22-5.22m0,9.4A4.176,4.176,0,1,1,111.8,87.14a4.176,4.176,0,0,1-4.176,4.176" transform="translate(-97.18 -77.744)"/>
    <path id="Path_345" data-name="Path 345" d="M17.226,2.088H14.939l-.433-.867A2.391,2.391,0,0,0,12.527,0H8.351A2.391,2.391,0,0,0,6.373,1.221l-.433.867H3.653A3.654,3.654,0,0,0,0,5.742v8.352a3.654,3.654,0,0,0,3.654,3.654H17.226a3.654,3.654,0,0,0,3.654-3.654V5.742a3.654,3.654,0,0,0-3.654-3.654m2.61,12.006a2.61,2.61,0,0,1-2.61,2.61H3.653a2.61,2.61,0,0,1-2.61-2.61V5.742a2.61,2.61,0,0,1,2.61-2.61h2.61a.522.522,0,0,0,.465-.287l.579-1.154a1.336,1.336,0,0,1,1.044-.647h4.176a1.336,1.336,0,0,1,1.044.647l.579,1.154a.522.522,0,0,0,.465.287h2.61a2.61,2.61,0,0,1,2.61,2.61Z" transform="translate(0.001)"/>
  </g>
</svg>
