<svg id="Group_42720" data-name="Group 42720" xmlns="http://www.w3.org/2000/svg" width="16" height="16" viewBox="0 0 16 16">
  <path id="Path_78178" data-name="Path 78178" d="M199.325,191.737a8.009,8.009,0,0,1,7.387,10.932,2.3,2.3,0,0,0-.066,1.652c.253.785.484,1.579.668,2.382a1.08,1.08,0,0,1-.1.856,1.051,1.051,0,0,1-.856.086,18.621,18.621,0,0,1-2.2-.75,1.6,1.6,0,0,0-1.422.066,7.955,7.955,0,0,1-11.163-5.354A8.037,8.037,0,0,1,199.325,191.737Zm7.132,15.051c-.2-.746-.339-1.394-.562-2.01a3.623,3.623,0,0,1,.074-2.588,7.119,7.119,0,0,0-9.366-9.076,7.151,7.151,0,1,0,5.8,13.065,2.222,2.222,0,0,1,1.96-.11C205.01,206.335,205.683,206.526,206.457,206.788Z" transform="translate(-191.352 -191.737)"/>
</svg>
