<svg xmlns="http://www.w3.org/2000/svg" width="18.516" height="16" viewBox="0 0 18.516 16">
  <g id="Group_42719" data-name="Group 42719" transform="translate(-0.31 -0.33)">
    <g id="Path_78175" data-name="Path 78175" transform="translate(0.31 0.33)">
      <path id="Path_78179" data-name="Path 78179" d="M18.8,4.815A4.469,4.469,0,0,0,15.019.473a5.732,5.732,0,0,0-5.341,1.8l-.092.112L9.463,2.3q-.229-.2-.428-.367c-.265-.224-.489-.418-.724-.591A5.118,5.118,0,0,0,5.223.33,5.534,5.534,0,0,0,3.215.717a4.282,4.282,0,0,0-2.793,3.2,8.566,8.566,0,0,0,.907,5.423C3,12.582,5.937,14.458,9.056,16.252a1.571,1.571,0,0,0,1.325-.163,36.947,36.947,0,0,0,4.995-3.6C17.893,10.126,19.014,7.618,18.8,4.815Zm-1,1.2c-.479,3-2.181,5.362-5.535,7.665-.459.316-.826.581-1.142.805-.764.561-1.162.836-1.56.836s-.785-.265-1.539-.805c-.326-.234-.714-.51-1.2-.836a11.6,11.6,0,0,1-5.249-6.84c-.1-.408-.173-.805-.224-1.07-.02-.092-.031-.173-.041-.224l-.01-.02v-.01c.031-2.059.683-3.231,2.141-3.812a4.311,4.311,0,0,1,4.648.785,4.93,4.93,0,0,1,.785.877c.234.347.479.53.663.52.214,0,.448-.194.724-.581a4.3,4.3,0,0,1,3.8-1.937,3.907,3.907,0,0,1,.9.1A3.786,3.786,0,0,1,17.8,6.018Z" transform="translate(-0.31 -0.33)"/>
    </g>
  </g>
</svg>
