<svg id="Component_36_1" data-name="Component 36 – 1" xmlns="http://www.w3.org/2000/svg" xmlns:xlink="http://www.w3.org/1999/xlink" width="326.078" height="293.776" viewBox="0 0 326.078 293.776">
  <defs>
    <linearGradient id="linear-gradient" y1="0.5" x2="1" y2="0.5" gradientUnits="objectBoundingBox">
      <stop offset="0" stop-color="#008bec"/>
      <stop offset="1" stop-color="#0077ec"/>
    </linearGradient>
    <linearGradient id="linear-gradient-2" x1="0" y1="0.5" x2="1" y2="0.5" xlink:href="#linear-gradient"/>
    <linearGradient id="linear-gradient-3" x1="0.5" y1="0.494" x2="0.5" y2="1.933" gradientUnits="objectBoundingBox">
      <stop offset="0.062" stop-color="#e38204"/>
      <stop offset="1" stop-color="#e35802"/>
    </linearGradient>
    <linearGradient id="linear-gradient-4" x1="0.487" y1="0.63" x2="0.514" y2="0.048" xlink:href="#linear-gradient"/>
    <linearGradient id="linear-gradient-5" x1="0.5" y1="0.256" x2="0.5" y2="0.954" xlink:href="#linear-gradient-3"/>
    <linearGradient id="linear-gradient-6" x1="0.5" y1="0.846" x2="0.5" y2="3.761" xlink:href="#linear-gradient-3"/>
    <linearGradient id="linear-gradient-9" x1="0" y1="0.5" x2="1" y2="0.5" xlink:href="#linear-gradient-3"/>
    <linearGradient id="linear-gradient-10" x1="0" y1="0.5" x2="1" y2="0.5" xlink:href="#linear-gradient-3"/>
    <linearGradient id="linear-gradient-11" x1="0.331" y1="0.11" x2="0.6" y2="0.574" gradientUnits="objectBoundingBox">
      <stop offset="0" stop-color="#00adee"/>
      <stop offset="1" stop-color="#7850ff"/>
    </linearGradient>
    <linearGradient id="linear-gradient-12" x1="0.058" y1="0.057" x2="0.692" y2="0.694" xlink:href="#linear-gradient"/>
    <linearGradient id="linear-gradient-13" x1="0.803" y1="0.201" x2="0.4" y2="0.695" xlink:href="#linear-gradient-11"/>
    <linearGradient id="linear-gradient-15" x1="0" y1="0.5" x2="1" y2="0.5" xlink:href="#linear-gradient-3"/>
  </defs>
  <g id="Group_31" data-name="Group 31" transform="translate(-67.922 -85.998)">
    <path id="Path_140" data-name="Path 140" d="M154.623,175.958a2.677,2.677,0,1,0,3.009-2.3A2.677,2.677,0,0,0,154.623,175.958Z" fill="url(#linear-gradient)"/>
    <path id="Path_141" data-name="Path 141" d="M143.594,159.764a5.358,5.358,0,1,0,6.023-4.6A5.359,5.359,0,0,0,143.594,159.764Z" fill="url(#linear-gradient-2)"/>
    <g id="Group_30" data-name="Group 30">
      <g id="Group_28" data-name="Group 28">
        <circle id="Ellipse_9" data-name="Ellipse 9" cx="26.077" cy="26.077" r="26.077" transform="translate(67.922 118.609) rotate(-38.702)" fill="#00adee"/>
        <circle id="Ellipse_10" data-name="Ellipse 10" cx="15.446" cy="15.446" r="15.446" transform="translate(111.635 155.433) rotate(-89.211)" fill="#00adee"/>
      </g>
      <g id="Group_29" data-name="Group 29">
        <path id="Path_142" data-name="Path 142" d="M128.758,130.755a7.906,7.906,0,0,0-1.84-2.011,8.134,8.134,0,0,0-9.752-.136l0,0-15.37-12.073-8.531-6.7a1.664,1.664,0,0,0-2.333.277L89.213,112.3l0,0-1.505,1.917a1.4,1.4,0,0,0,.238,1.963l.195.152a1.4,1.4,0,0,0,1.963-.233l1.5-1.916L93,115.277l-1.506,1.917a1.4,1.4,0,0,0,.239,1.963l.253.2a1.4,1.4,0,0,0,1.963-.233l1.506-1.917,1.4,1.093L95.4,120.156a1.447,1.447,0,0,0,.077,1.929,1.4,1.4,0,0,0,2.074-.14l1.505-1.917,15.37,12.073a8.141,8.141,0,0,0,14.163,7.812A8.206,8.206,0,0,0,128.758,130.755Zm-3.855,8.967A2.086,2.086,0,1,1,126.361,136a2.053,2.053,0,0,1,.695,1l0,0a2.089,2.089,0,0,1-2.157,2.719Z" fill="#fff"/>
        <path id="Path_143" data-name="Path 143" d="M128.585,139.913a8.14,8.14,0,0,1-14.771-4.718c1.313,2.681,3.377,5.046,6.6,5.547a5.7,5.7,0,0,0,4.488-1.02A2.089,2.089,0,0,0,127.06,137l0,0a18.779,18.779,0,0,0,1.7-6.245A8.206,8.206,0,0,1,128.585,139.913Z" fill="#fff"/>
      </g>
    </g>
  </g>
  <circle id="Ellipse_11" data-name="Ellipse 11" cx="68.145" cy="68.145" r="68.145" transform="matrix(0.23, -0.973, 0.973, 0.23, 52.203, 229.413)" fill="#eff4f9"/>
  <circle id="Ellipse_12" data-name="Ellipse 12" cx="51.79" cy="51.79" r="51.79" transform="translate(106.924 60.994)" fill="#eff4f9"/>
  <circle id="Ellipse_13" data-name="Ellipse 13" cx="51.79" cy="51.79" r="51.79" transform="translate(196.266 195.31) rotate(-80.69)" fill="#eff4f9"/>
  <line id="Line_1" data-name="Line 1" x1="277.849" transform="translate(48.229 292.686)" fill="none" stroke="#d7e3f4" stroke-miterlimit="10" stroke-width="2.181"/>
  <g id="Group_33" data-name="Group 33" transform="translate(-67.922 -85.998)">
    <g id="Group_32" data-name="Group 32">
      <path id="Path_144" data-name="Path 144" d="M244.838,113.5a8.865,8.865,0,0,0-2.943.828,9.128,9.128,0,0,0-5.06,9.7l0,0-19.859,9.308-11.017,5.168a1.866,1.866,0,0,0-.9,2.478l1.323,2.824,0,0,1.161,2.477a1.566,1.566,0,0,0,2.087.751l.251-.117a1.568,1.568,0,0,0,.758-2.085l-1.161-2.477,1.791-.839,1.16,2.477a1.569,1.569,0,0,0,2.088.751l.326-.153a1.569,1.569,0,0,0,.758-2.084l-1.161-2.477,1.8-.849,1.128,2.4a1.623,1.623,0,0,0,1.971.9,1.565,1.565,0,0,0,.907-2.149l-1.161-2.477,19.858-9.307a9.135,9.135,0,0,0,14.979-10.25A9.208,9.208,0,0,0,244.838,113.5Zm7.04,8.39a2.341,2.341,0,1,1-3-3.341,2.309,2.309,0,0,1,1.355-.191l0,0a2.344,2.344,0,0,1,1.636,3.534Z" fill="#e2ebf7"/>
      <path id="Path_145" data-name="Path 145" d="M253.929,118.3a9.135,9.135,0,0,1-12.186,12.421c3.35.038,6.762-.837,8.892-3.815a6.391,6.391,0,0,0,1.243-5.012,2.344,2.344,0,0,0-1.636-3.534l0,0a21.089,21.089,0,0,0-5.4-4.858A9.208,9.208,0,0,1,253.929,118.3Z" fill="#e2ebf7"/>
    </g>
  </g>
  <g id="Group_39" data-name="Group 39" transform="translate(-67.922 -85.998)">
    <g id="Group_38" data-name="Group 38">
      <g id="Group_37" data-name="Group 37">
        <g id="Group_35" data-name="Group 35">
          <g id="Group_34" data-name="Group 34">
            <path id="Path_146" data-name="Path 146" d="M331.622,143.78a4.6,4.6,0,0,0-1.514-.482,4.746,4.746,0,0,0-4.971,2.765v0l-11.28-1.638-6.26-.906a.97.97,0,0,0-1.1.818l-.233,1.6h0l-.2,1.407a.812.812,0,0,0,.691.923l.142.021a.815.815,0,0,0,.925-.689l.2-1.406,1.017.147-.2,1.407a.816.816,0,0,0,.691.923l.185.027a.815.815,0,0,0,.925-.688l.2-1.407,1.024.146-.195,1.362a.842.842,0,0,0,.6.953.813.813,0,0,0,1.008-.674l.2-1.406,11.28,1.637a4.748,4.748,0,0,0,9.431-.166A4.784,4.784,0,0,0,331.622,143.78Zm.657,5.654a1.218,1.218,0,1,1,.3-2h0a1.219,1.219,0,0,1-.3,2Z" fill="#e2ebf7"/>
          </g>
        </g>
        <g id="Group_36" data-name="Group 36">
          <path id="Path_147" data-name="Path 147" d="M334.2,148.461a4.748,4.748,0,0,1-8.84,1.907,5.3,5.3,0,0,0,4.95.886,3.324,3.324,0,0,0,1.973-1.82,1.219,1.219,0,0,0,.3-2h0a10.965,10.965,0,0,0-.955-3.652A4.784,4.784,0,0,1,334.2,148.461Z" fill="#e2ebf7"/>
        </g>
      </g>
    </g>
  </g>
  <g id="Group_46" data-name="Group 46" transform="translate(-67.922 -85.998)">
    <rect id="Rectangle_1" data-name="Rectangle 1" width="154.697" height="139.611" rx="8.662" transform="translate(198.231 167.566)" fill="#d7e3f4"/>
    <g id="Group_43" data-name="Group 43">
      <g id="Group_42" data-name="Group 42">
        <rect id="Rectangle_2" data-name="Rectangle 2" width="105.587" height="15.142" transform="translate(222.786 211.745)" fill="#fff"/>
        <rect id="Rectangle_3" data-name="Rectangle 3" width="105.587" height="15.142" transform="translate(222.786 238.619)" fill="#fff"/>
        <rect id="Rectangle_4" data-name="Rectangle 4" width="105.587" height="15.142" transform="translate(222.786 267.952)" fill="#abc9f4"/>
        <g id="Group_40" data-name="Group 40">
          <path id="Path_148" data-name="Path 148" d="M237.758,246.19a1.739,1.739,0,1,1-1.739-1.739A1.74,1.74,0,0,1,237.758,246.19Z" fill="#1d262d"/>
          <path id="Path_149" data-name="Path 149" d="M255.341,246.19a1.74,1.74,0,1,1-1.74-1.739A1.74,1.74,0,0,1,255.341,246.19Z" fill="#1d262d"/>
          <path id="Path_150" data-name="Path 150" d="M272.923,246.19a1.739,1.739,0,1,1-1.739-1.739A1.739,1.739,0,0,1,272.923,246.19Z" fill="#1d262d"/>
          <path id="Path_151" data-name="Path 151" d="M246.549,246.19a1.739,1.739,0,1,1-1.739-1.739A1.739,1.739,0,0,1,246.549,246.19Z" fill="#1d262d"/>
          <path id="Path_152" data-name="Path 152" d="M264.132,246.19a1.739,1.739,0,1,1-1.739-1.739A1.74,1.74,0,0,1,264.132,246.19Z" fill="#1d262d"/>
          <path id="Path_153" data-name="Path 153" d="M299.3,246.19a1.739,1.739,0,1,1-1.739-1.739A1.739,1.739,0,0,1,299.3,246.19Z" fill="#1d262d"/>
          <path id="Path_154" data-name="Path 154" d="M281.715,246.19a1.74,1.74,0,1,1-1.74-1.739A1.74,1.74,0,0,1,281.715,246.19Z" fill="#1d262d"/>
          <path id="Path_155" data-name="Path 155" d="M290.506,246.19a1.739,1.739,0,1,1-1.739-1.739A1.74,1.74,0,0,1,290.506,246.19Z" fill="#1d262d"/>
          <path id="Path_156" data-name="Path 156" d="M316.88,246.19a1.74,1.74,0,1,1-1.739-1.739A1.74,1.74,0,0,1,316.88,246.19Z" fill="#1d262d"/>
          <path id="Path_157" data-name="Path 157" d="M308.089,246.19a1.74,1.74,0,1,1-1.739-1.739A1.74,1.74,0,0,1,308.089,246.19Z" fill="#1d262d"/>
        </g>
        <g id="Group_41" data-name="Group 41">
          <path id="Path_158" data-name="Path 158" d="M255.341,220.135a1.74,1.74,0,1,1-1.74-1.74A1.74,1.74,0,0,1,255.341,220.135Z" fill="#1d262d"/>
          <path id="Path_159" data-name="Path 159" d="M272.923,220.135a1.739,1.739,0,1,1-1.739-1.74A1.739,1.739,0,0,1,272.923,220.135Z" fill="#1d262d"/>
          <path id="Path_160" data-name="Path 160" d="M264.132,220.135a1.739,1.739,0,1,1-1.739-1.74A1.74,1.74,0,0,1,264.132,220.135Z" fill="#1d262d"/>
          <path id="Path_161" data-name="Path 161" d="M299.3,220.135a1.739,1.739,0,1,1-1.739-1.74A1.739,1.739,0,0,1,299.3,220.135Z" fill="#1d262d"/>
          <path id="Path_162" data-name="Path 162" d="M281.715,220.135a1.74,1.74,0,1,1-1.74-1.74A1.74,1.74,0,0,1,281.715,220.135Z" fill="#1d262d"/>
          <path id="Path_163" data-name="Path 163" d="M290.506,220.135a1.739,1.739,0,1,1-1.739-1.74A1.74,1.74,0,0,1,290.506,220.135Z" fill="#1d262d"/>
        </g>
      </g>
    </g>
    <g id="Group_45" data-name="Group 45">
      <circle id="Ellipse_14" data-name="Ellipse 14" cx="24.896" cy="24.896" r="24.896" transform="matrix(0.634, -0.773, 0.773, 0.634, 240.543, 173.358)" fill="#00adee"/>
      <g id="Group_44" data-name="Group 44">
        <line id="Line_2" data-name="Line 2" x1="19.083" y2="19.083" transform="translate(266.038 160.347)" fill="none" stroke="#fff" stroke-miterlimit="10" stroke-width="2.273"/>
        <line id="Line_3" data-name="Line 3" x1="19.083" y1="19.083" transform="translate(266.038 160.347)" fill="none" stroke="#fff" stroke-miterlimit="10" stroke-width="2.273"/>
      </g>
    </g>
  </g>
  <g id="Group_52" data-name="Group 52" transform="translate(-67.922 -85.998)">
    <path id="Path_164" data-name="Path 164" d="M151.96,272.508l25.795-1.072,1.13-44.131-3.205-8.937-10.685-3.679-7.479-1.383a9,9,0,0,0-7.31,9.158L153,253.7Z" fill="#f7d6b2"/>
    <path id="Path_165" data-name="Path 165" d="M162.313,206.406v8.868s1.874,1.119,6.259,1.119c2.364,0,2.895.408,2.895.408V212Z" fill="#f7d6b2"/>
    <path id="Path_166" data-name="Path 166" d="M161.281,199.785c.02.321.031.622.052.912,0,.1-.011.207-.011.321-.217,5.264,3.161,10.9,8.248,11.668,0,0,.042.01.114.021.042,0,.1.01.176.01,1.088.135,5.026.456,6.466-1.129a13.4,13.4,0,0,0,3.191-7.621,29.98,29.98,0,0,0-.424-3.831c0-.736.4-3.038.4-4.037.033-4.7-3.128-9.36-8.744-9.36C162.327,186.739,161.042,194.128,161.281,199.785Z" fill="#f7d6b2"/>
    <path id="Path_167" data-name="Path 167" d="M171.463,214.973" fill="#6ebaad"/>
    <g id="Group_48" data-name="Group 48">
      <path id="Path_168" data-name="Path 168" d="M141.506,250.355c2.766,1.15,10.938-14.3,13.919-21.112s4.113-12.716.736-14.121-6.765,3.559-9.495,10.477S138.74,249.2,141.506,250.355Z" fill="#f7d6b2"/>
      <g id="Group_47" data-name="Group 47">
        <path id="Path_169" data-name="Path 169" d="M142.555,281.091c2.656.042,3.7-19.493,3.783-25.012s-.228-11.351-3.206-11.4-3.478,5.772-3.565,11.291S139.9,281.049,142.555,281.091Z" fill="#f7d6b2"/>
        <path id="Path_170" data-name="Path 170" d="M142.765,276.033c-3.126-.281-3,5.288-2.884,7.186.185,3.091,3.386,6.106,4.587,6.052s.256-7.022.519-7.27.406,3.536,1.529,3.367.726-4.758-.128-6.515S144.724,276.21,142.765,276.033Z" fill="#f7d6b2"/>
      </g>
    </g>
    <path id="Path_171" data-name="Path 171" d="M160.308,220.6a37.249,37.249,0,0,1-3.878,9.159c-2.146,3.929-4.081,7.3-5.34,9.471-.777,1.335-1.3,2.206-1.462,2.476-.033.059-.05.093-.05.093l-7.461-3.05s4.427-18.42,11.356-24.081a6.869,6.869,0,0,1,.921-.4C158.306,215.016,161.128,216.57,160.308,220.6Z" fill="url(#linear-gradient-3)"/>
    <path id="Path_172" data-name="Path 172" d="M167.918,269.231c-2.571.974-4,5.055-3.134,8.851a56.53,56.53,0,0,0,4.049,11.434c5.342,11.324,9.475,26.465,13.264,26.411s5.045-9.446,1.332-21.68c-3.355-11.057-6.429-25.558-9.219-26.278C172.8,267.6,170.169,268.378,167.918,269.231Z" fill="#f7d6b2"/>
    <g id="Group_49" data-name="Group 49">
      <path id="Path_173" data-name="Path 173" d="M183.345,313.511c-10.294-3.152-5.635,46.652-2.18,55.5s4.753-14.755,5.375-30.022S187.4,314.752,183.345,313.511Z" fill="#f7d6b2"/>
    </g>
    <path id="Path_174" data-name="Path 174" d="M178.487,357.932c.117.156.859,13.745.859,13.745s6.56.469,6.56,0,.508-12.261.508-12.261Z" fill="#f7d6b2"/>
    <path id="Path_175" data-name="Path 175" d="M155.318,357.932c.117.156.859,13.745.859,13.745s6.56.469,6.56,0,.508-12.261.508-12.261Z" fill="#f7d6b2"/>
    <path id="Path_176" data-name="Path 176" d="M155.4,269.051c-2.712.457-4.907,4.184-4.79,8.076a56.45,56.45,0,0,0,1.756,12c3.046,12.144,4.166,27.8,7.894,28.48s6.779-8.289,5.508-21.01c-1.149-11.5-1.354-26.32-3.951-27.567C160.5,268.4,157.768,268.65,155.4,269.051Z" fill="#f7d6b2"/>
    <g id="Group_50" data-name="Group 50">
      <path id="Path_177" data-name="Path 177" d="M161.682,314.577c-10.123-3.666-7.3,46.327-4.291,55.335s4.813-14.514,6.2-29.73S165.664,316.019,161.682,314.577Z" fill="#f7d6b2"/>
    </g>
    <path id="Path_178" data-name="Path 178" d="M179.069,269.462s9.158,38.567,8.95,46.689-1.765,50.583-1.765,50.583-7.307.032-7.313,0c-5.638-30.656-3.308-48.9-3.933-52.34s-7.5-18.119-7.5-18.119-.313,16.869-.313,21.555-4.217,48.592-4.217,48.592l-7.562.156s-2.435-30-2.435-36.1,1.484-15.62,1.406-16.869-11.871-31.864-4.061-43.735C160.6,254.269,179.069,269.462,179.069,269.462Z" fill="url(#linear-gradient-4)"/>
    <path id="Path_179" data-name="Path 179" d="M182.758,227.453a8.449,8.449,0,0,1-.177,1.943c-.076.364-.169.786-.313,1.3-.389,1.47-1.082,3.667-2.307,7.367-3.312,9.988-.363,31.542-.321,31.753,0,0-30.062.727-29.995-.144.482-5.939,5.07-11.22,1.158-32.1-3.211-17.169,1.056-23.7,4.824-24.148,7.427-.887,20.532,3.541,22.323,5.205S182.7,223.752,182.758,227.453Z" fill="url(#linear-gradient-5)"/>
    <path id="Path_180" data-name="Path 180" d="M209.68,218.441c-.4-2.943-17.718-2.178-25.042-1.308S171.7,220,172.193,223.591s6.439,4,13.726,2.863S210.084,221.385,209.68,218.441Z" fill="#eed7ba"/>
    <path id="Path_181" data-name="Path 181" d="M196.64,224.656s-7.952,3.059-14.093,4.749c-3.759,1.034-7.131.642-7.875-1.589-.017-.059-.118-.042-.177-.067-3.828-1.5-5.031-7.9-1.271-9.566,2.172-.963,6.812-.831,10.852-1.131,7.869-.585,10.722-.693,10.722-.693l1.741,7.833Z" fill="url(#linear-gradient-6)"/>
    <path id="Path_182" data-name="Path 182" d="M180.9,193.184a9.211,9.211,0,0,1-1.349,4.115c-2.616,4.493-4.115,8.729-4.04,14.007.089,6.322,3.883,13.858-.037,19.708-5.709,8.52-20.373,7.911-26.755.8-4.266-4.756-5.247-12.454-.241-17.146,2.161-2.026,4.184-3.96,5.432-6.682,3.483-7.6,3.061-19.8,12.739-22.9C172.065,183.355,181.285,186.38,180.9,193.184Z" fill="#1d262d"/>
    <path id="Path_183" data-name="Path 183" d="M185.958,370.3s.692,2.009,4.872,4.623,5.276,2.045,5.37,3.023-17.376.173-17.376.173l.273-8.042S185.956,370.087,185.958,370.3Z" fill="url(#linear-gradient-2)"/>
    <path id="Path_184" data-name="Path 184" d="M162.789,370.076a17.739,17.739,0,0,0,3.608,4.414c2.487,2.408,4.684,1.893,4.483,2.754-.193.827-14.963.291-14.963.291v-7.459Z" fill="url(#linear-gradient-2)"/>
    <g id="Group_51" data-name="Group 51">
      <path id="Path_185" data-name="Path 185" d="M184,193.578c-1.885,1.84,11.14,16.216,14.963,20.133s8.149,7.768,10.262,5.705-1.634-6.48-5.457-10.4S185.886,191.738,184,193.578Z" fill="#eed7ba"/>
      <path id="Path_186" data-name="Path 186" d="M177.74,188.559c-.733.73,3.155,4.286,4.172,5.443.154.175.246.3.242.345s-.068.048-.164.021c-.6-.164-2.743-1.533-3.355-.78-.673.828,2.288,3.632,4.132,4.538.1.05.214.118.309.156,1.8.718,2.984.828,4.539-.35,2.481-1.88-1.331-5.878-2.68-7.2a9.707,9.707,0,0,0-4.248-2.239C179.331,188.155,178.148,188.153,177.74,188.559Z" fill="#eed7ba"/>
    </g>
    <path id="Path_187" data-name="Path 187" d="M151.124,239.155l-.034.076c-.777,1.335-1.3,2.206-1.462,2.476l.795-7.934A41.3,41.3,0,0,0,151.124,239.155Z" opacity="0.5" fill="url(#linear-gradient-9)" style="mix-blend-mode: multiply;isolation: isolate"/>
    <path id="Path_188" data-name="Path 188" d="M182.581,229.4c-.076.364-.169.786-.313,1.3-1.884,1.132-5.673.256-5.673.256l5.952-1.549S182.555,229.4,182.581,229.4Z" opacity="0.5" fill="url(#linear-gradient-10)" style="mix-blend-mode: multiply;isolation: isolate"/>
  </g>
  <g id="Group_57" data-name="Group 57" transform="translate(-67.922 -85.998)">
    <g id="Group_54" data-name="Group 54">
      <path id="Path_189" data-name="Path 189" d="M353.234,356.027a40.083,40.083,0,0,0-.1,11.32,17.426,17.426,0,0,1,.135,3.177,3.564,3.564,0,0,1-1.217,2.944c-1.425.9-3.228-.4-4.237-1.746-4.4-5.872-4.661-13.628-8.411-19.83-.578-.954-1.212-1.9-1.867-2.846l1.1-4.2-2.288,2.486c-2.617-3.777-5.145-7.686-5.118-12.388l3.355.285s-1.767-.725-3.327-1.335c.128-3.167.529-6.437-.584-9.418a20.731,20.731,0,0,0-3.867-5.685l2.2-3.271s-2.086.656-3.9,1.029c-.139-.209-.272-.423-.4-.639-1.982-3.378-2.2-7.254-2.028-11.067a51.994,51.994,0,0,1,.6-6.418c.807.045,1.493.078,1.493.078l-1.188-1.633a21.974,21.974,0,0,1,1.025-3.336c.3-.751,1.4-3.389,2.358-3.5,2.769-.312,5.08,2.219,6.068,4.823.936,2.466,1.365,4.932,2.422,7.24l-1.345,1.426,2.3.3c.111.173.226.341.35.509,2.825,3.863,7.809,6.873,10.7,10.653-2.212.6-4.31,1.335-4.31,1.335l6.109,1.907a9.577,9.577,0,0,1-.641,7.353c-.424.929-.893,1.818-1.314,2.715l-1.623-1.1,1.13,2.24a9.446,9.446,0,0,0-.756,3.774c.093,4.047,2.624,7.435,4.682,10.943-.353,1.114-.66,2.093-.66,2.093l1.72-.168a16.682,16.682,0,0,1,1.135,2.807A16.339,16.339,0,0,1,353.234,356.027Z" fill="url(#linear-gradient-11)"/>
      <g id="Group_53" data-name="Group 53">
        <path id="Path_190" data-name="Path 190" d="M347.786,362.248c-.9-9.724-3.567-13.984-5.918-17.742a24.412,24.412,0,0,1-2.852-5.579,31.872,31.872,0,0,1-.929-8.316c-.151-5.05-.307-10.271-3.419-13.646-5.307-5.754-6.366-19.076-6.368-19.2l.926-.015-.463.007.463-.009c0,.124.993,13.032,6.122,18.592,3.346,3.628,3.508,9.026,3.664,14.245a31.272,31.272,0,0,0,.886,8.063,23.322,23.322,0,0,0,2.755,5.369c2.286,3.656,5.132,8.2,6.054,18.147Z" fill="url(#linear-gradient-12)" style="mix-blend-mode: screen;isolation: isolate"/>
      </g>
    </g>
    <g id="Group_55" data-name="Group 55">
      <path id="Path_191" data-name="Path 191" d="M357.4,364.574a10.544,10.544,0,0,0,4.05-3.225c2.774-4.132,2.468-9.683,3.247-14.4.927-5.607,3.43-11.145,7.867-14.7,3.6-2.882,6.014-6.084,6.768-10.782.742-4.618.258-9.32.759-13.958a72.611,72.611,0,0,1,2.941-14.3c1.255-3.954,2.583-10.559-3.974-9.663a10.59,10.59,0,0,0-6.7,3.756c-4.355,5.338-3.979,12.9-7.224,18.8-1.639,2.979-4.167,5.193-6.575,7.537-2.161,2.1-4.443,4.626-4.9,7.727-.265,1.8-.053,3.664-.472,5.437-.586,2.474-2.3,4.4-3.853,6.33a36.811,36.811,0,0,0-4.1,6.648c-3.02,5.917-6,13.473-4.2,20.145a9.2,9.2,0,0,0,3.1,5.066C347.731,367.7,353.687,366.426,357.4,364.574Z" fill="url(#linear-gradient-13)"/>
      <path id="Path_192" data-name="Path 192" d="M360.111,318.587" fill="none" stroke="#fff" stroke-linecap="round" stroke-miterlimit="10" stroke-width="1.2"/>
      <path id="Path_193" data-name="Path 193" d="M357.374,322.23a.6.6,0,0,1,.678.51l1.727,12.308,10.986-21.607a.6.6,0,0,1,1.069.544l-8.034,15.8,11.181-7.832a.6.6,0,0,1,.688.983l-12.7,8.894a.586.586,0,0,1-.26.1L352.23,352.54l7.674-3.481a.6.6,0,0,1,.5,1.093l-8.582,3.892a.6.6,0,0,1-.373.04l-1.995,3.922a.6.6,0,0,1-.806.263.612.612,0,0,1-.177-.135.6.6,0,0,1-.086-.671L358.9,336.772a.6.6,0,0,1-.136-.3l-1.9-13.565A.6.6,0,0,1,357.374,322.23Z" fill="url(#linear-gradient-2)" style="mix-blend-mode: screen;isolation: isolate"/>
    </g>
    <path id="Path_194" data-name="Path 194" d="M354.716,305.85a18.455,18.455,0,0,1,4.9-5.592.485.485,0,0,0,.2-.271c2.766-2.216,10.172-8.614,6.441-10.842-3.7-2.206-6.37,6.866-7.24,10.328a19.119,19.119,0,0,0-5.084,5.754c.909-3.713,2.665-12.6-1.5-12.146-4.674.514-.252,11.028.788,13.357a36.638,36.638,0,0,0-2.486,5.462c-.17.467-.337.96-.5,1.47,0-4.1-.463-12.192-4.217-10.873-4.334,1.523,1.946,10.375,3.676,12.682a58.411,58.411,0,0,0-1.766,9.665c-.887-3.773-3.33-12.338-6.81-10.064-3.9,2.544,4.577,9.8,6.677,11.507a85.262,85.262,0,0,0-.243,9.017c-1.374-3.483-5.145-11.967-8.311-9.147-3.495,3.113,6.092,9.077,8.351,10.411.092,2.529.283,5.225.6,8.1-2.408-2.747-8.967-9.657-11.012-5.886-2.164,3.989,8.149,6.325,11.129,6.909.342,2.921.8,6.015,1.409,9.3-1.848-2.173-9.287-10.5-11.49-6.44-2.3,4.236,9.479,6.609,11.6,7q.594,3.156,1.363,6.538a.491.491,0,0,0,.589.369.406.406,0,0,0,.079-.026.49.49,0,0,0,.29-.563q-.774-3.386-1.361-6.53c2.407-.24,14.195-1.638,12.025-5.87-2.112-4.117-10.135,3.448-12.114,5.409-.6-3.233-1.053-6.276-1.393-9.148,2.287-.225,14.266-1.613,12.08-5.875-2.119-4.131-10.189,3.5-12.132,5.428-.364-3.173-.582-6.129-.679-8.878,2.557-.13,14.174-.964,12.234-5.26-1.872-4.147-10.01,2.7-12.252,4.7a85.082,85.082,0,0,1,.222-9.487c2.57.128,14.191.463,12.694-4-1.441-4.3-10.181,1.644-12.642,3.426a58.292,58.292,0,0,1,1.824-10.367c2.739.134,14.088.429,12.615-3.989-1.391-4.169-9.64,1.266-12.4,3.228.244-.821.5-1.593.754-2.309a35.177,35.177,0,0,1,2.532-5.544c2.536.09,14.217.269,12.653-4.185C365.389,298.594,357.667,303.708,354.716,305.85Z" fill="#1d262d"/>
    <g id="Group_56" data-name="Group 56">
      <path id="Path_195" data-name="Path 195" d="M339.707,378.08h21.837a2.709,2.709,0,0,0,2.7-2.48l2.785-28.613H334.223l2.785,28.613A2.708,2.708,0,0,0,339.707,378.08Z" fill="url(#linear-gradient-15)"/>
      <rect id="Rectangle_5" data-name="Rectangle 5" width="36.799" height="5.563" rx="1.177" transform="translate(369.025 352.549) rotate(180)" fill="url(#linear-gradient-15)"/>
    </g>
  </g>
</svg>
