<svg id="Share_Icon" data-name="Share Icon" xmlns="http://www.w3.org/2000/svg" width="24" height="24" viewBox="0 0 24 24">
  <rect id="bound" width="24" height="24" fill="none"/>
  <path id="Shape" d="M18.745,14.791a8.851,8.851,0,0,0-2.378-6.626C14.648,6.437,12.076,6.137,9,6V1.693a.75.75,0,0,0-1.254-.555L.606,7.615A.75.75,0,0,0,.6,8.721l7.14,6.612A.75.75,0,0,0,9,14.783V10.5a16.561,16.561,0,0,1,4.608.58l4.166,5.142a.75.75,0,0,0,.583.278h0a.429.429,0,0,0,.392-.392Z" transform="translate(2.7 3)" fill="none" stroke="#000" stroke-width="1"/>
</svg>
