<svg id="Shield_Done" data-name="Shield Done" xmlns="http://www.w3.org/2000/svg" width="9.353" height="11.517" viewBox="0 0 9.353 11.517">
  <path id="Stroke_1" data-name="Stroke 1" d="M8.908,1.447a.664.664,0,0,1,.444.627V6.2a4.743,4.743,0,0,1-1.16,3.109,4.737,4.737,0,0,1-1.344,1.035L4.68,11.517,2.508,10.345A4.734,4.734,0,0,1,1.162,9.31,4.744,4.744,0,0,1,0,6.2V2.074a.664.664,0,0,1,.444-.627L4.456.037a.665.665,0,0,1,.44,0Z" transform="translate(0 0)" fill="#00adee"/>
  <path id="Stroke_3" data-name="Stroke 3" d="M0,1.222,1.153,2.376,3.529,0" transform="translate(3.092 4.366)" fill="#00adee" stroke="#fff" stroke-linecap="round" stroke-linejoin="round" stroke-miterlimit="10" stroke-width="0.7"/>
</svg>
