<svg xmlns="http://www.w3.org/2000/svg" width="20.003" height="20.003" viewBox="0 0 20.003 20.003">
  <g id="Group_63" data-name="Group 63" transform="translate(0.127 0.127)">
    <circle id="Ellipse_15" data-name="Ellipse 15" cx="10.001" cy="10.001" r="10.001" transform="translate(-0.127 -0.127)" fill="#ffd93b"/>
    <path id="Path_196" data-name="Path 196" d="M74.457,64.483A9.974,9.974,0,0,1,56.72,70.745,9.974,9.974,0,0,0,70.745,56.72,9.962,9.962,0,0,1,74.457,64.483Z" transform="translate(-54.609 -54.609)" fill="#f4c534"/>
    <circle id="Ellipse_16" data-name="Ellipse 16" cx="1.565" cy="1.565" r="1.565" transform="translate(11.979 7.125)" fill="#3e4347"/>
    <ellipse id="Ellipse_17" data-name="Ellipse 17" cx="0.307" cy="0.474" rx="0.307" ry="0.474" transform="matrix(0.405, -0.914, 0.914, 0.405, 13.43, 8.085)" fill="#5a5f63"/>
    <circle id="Ellipse_18" data-name="Ellipse 18" cx="1.565" cy="1.565" r="1.565" transform="translate(4.641 7.125)" fill="#3e4347"/>
    <ellipse id="Ellipse_19" data-name="Ellipse 19" cx="0.307" cy="0.474" rx="0.307" ry="0.474" transform="matrix(0.405, -0.914, 0.914, 0.405, 6.092, 8.085)" fill="#5a5f63"/>
    <path id="Path_197" data-name="Path 197" d="M147.506,337.132a.467.467,0,0,1,.641-.681,5.032,5.032,0,0,0,6.889,0,.467.467,0,0,1,.641.681A5.968,5.968,0,0,1,147.506,337.132Z" transform="translate(-141.716 -323.32)" fill="#3e4347"/>
  </g>
</svg>
