<svg xmlns="http://www.w3.org/2000/svg" width="12.802" height="15.907" viewBox="0 0 12.802 15.907">
  <g id="Iconly_Light_Profile" data-name="Iconly/Light/Profile" transform="translate(0.6 0.6)">
    <g id="Profile">
      <circle id="Ellipse_736" cx="3.656" cy="3.656" r="3.656" transform="translate(2.143 0)" fill="none" stroke="#047af2" stroke-linecap="round" stroke-linejoin="round" stroke-miterlimit="10" stroke-width="1.2"/>
      <path id="Path_33945" d="M0,2.307a1.7,1.7,0,0,1,.168-.742A3.093,3.093,0,0,1,2.325.326,12.843,12.843,0,0,1,4.118.074a19.167,19.167,0,0,1,3.354,0A12.99,12.99,0,0,1,9.265.326a2.975,2.975,0,0,1,2.157,1.24,1.737,1.737,0,0,1,0,1.492A2.946,2.946,0,0,1,9.265,4.289a12.024,12.024,0,0,1-1.793.259,19.755,19.755,0,0,1-2.731.042,3.111,3.111,0,0,1-.623-.042,11.8,11.8,0,0,1-1.786-.259A2.961,2.961,0,0,1,.168,3.057,1.744,1.744,0,0,1,0,2.307Z" transform="translate(0 10.088)" fill="none" stroke="#047af2" stroke-linecap="round" stroke-linejoin="round" stroke-miterlimit="10" stroke-width="1.2"/>
    </g>
  </g>
</svg>
